# AST/ASF file generated using VICON BodyLanguage
# -----------------------------------------------
:version 1.10
:name VICON
:units
  mass 1.0
  length 0.45
  angle deg
:documentation
   .ast/.asf automatically generated from VICON data using
   VICON BodyBuilder and BodyLanguage model FoxedUp or BRILLIANT.MOD
:root
   order TX TY TZ RX RY RZ
   axis XYZ
   position 0 0 0  
   orientation 0 0 0 
:bonedata
  begin
     id 1 
     name lhipjoint
     direction 0.602128 -0.715006 0.355257 
     length 2.21237 
     axis 0 0 0  XYZ
  end
  begin
     id 2 
     name lfemur
     direction 0.34202 -0.939693 0  
     length 6.71649  
     axis 0 0 20  XYZ
    dof rx ry rz
    limits (-160.0 20.0)
           (-70.0 70.0)
           (-60.0 70.0)
  end
  begin
     id 3 
     name ltibia
     direction 0.34202 -0.939693 0   
     length 6.97123   
     axis 0 0 20   XYZ
    dof rx
    limits (-10.0 170.0)
  end
  begin
     id 4 
     name lfoot
     direction 0.0655697 -0.180151 0.981451   
     length 1.80924   
     axis -90 7.62852e-016 20   XYZ
    dof rx rz
    limits (-45.0 90.0)
           (-70.0 20.0)
  end
  begin
     id 5 
     name ltoes
     direction 1.53545e-011 -4.21827e-011 1   
     length 0.916331   
     axis -90 7.62852e-016 20   XYZ
    dof rx
    limits (-90.0 20.0)
  end
  begin
     id 6 
     name rhipjoint
     direction -0.625414 -0.698792 0.347201   
     length 2.2637  
     axis 0 0 0  XYZ 
  end
  begin
     id 7 
     name rfemur
     direction -0.34202 -0.939693 0   
     length 7.07595   
     axis 0 0 -20   XYZ
    dof rx ry rz
    limits (-160.0 20.0)
           (-70.0 70.0)
           (-70.0 60.0)
  end
  begin
     id 8 
     name rtibia
     direction -0.34202 -0.939693 0   
     length 7.22924   
     axis 0 0 -20   XYZ
    dof rx
    limits (-10.0 170.0)
 end
 begin
     id 9 
     name rfoot
     direction -0.0766747 -0.210662 0.974547   
     length 1.98482  
     axis -90 -7.62852e-016 -20   XYZ
    dof rx rz
    limits (-45.0 90.0)
           (-20.0 70.0)
  end
  begin
     id 10 
     name rtoes
     direction -1.53532e-011 -4.21867e-011 1   
     length 0.999842   
     axis -90 -7.62852e-016 -20   XYZ
    dof rx
    limits (-90.0 20.0)
  end
  begin
     id 11 
     name lowerback
     direction -0.0224668 0.997354 -0.0691422   
     length 2.09945   
     axis 0 0 0   XYZ
    dof rx ry rz
    limits (-20.0 45.0)
           (-30.0 30.0)
           (-30.0 30.0)
  end
  begin
     id 12 
     name upperback
     direction 0.0134698 0.998451 -0.0539888   
     length 2.09758   
     axis 0 0 0   XYZ
    dof rx ry rz
    limits (-20.0 45.0)
           (-30.0 30.0)
           (-30.0 30.0)
  end
  begin
     id 13 
     name thorax
     direction 0.0241905 0.99948 -0.0213333   
     length 2.10428   
     axis 0 0 0   XYZ
    dof rx ry rz
    limits (-20.0 45.0)
           (-30.0 30.0)
           (-30.0 30.0)
  end
  begin
     id 14 
     name lowerneck
     direction -0.00866847 0.995978 0.0891737   
     length 1.3959   
     axis 0 0 0   XYZ
    dof rx ry rz
    limits (-20.0 45.0)
           (-30.0 30.0)
           (-30.0 30.0)
  end
  begin
     id 15 
     name upperneck
     direction 0.0680679 0.992203 0.104404   
     length 1.39452   
     axis 0 0 0   XYZ
    dof rx ry rz
    limits (-20.0 45.0)
           (-30.0 30.0)
           (-30.0 30.0)
  end
  begin
     id 16
     name head
     direction 0.0242216 0.999358 0.0264054  
     length 1.40433  
     axis 0 0 0   XYZ
    dof rx ry rz
    limits (-20.0 45.0)
           (-30.0 30.0)
           (-30.0 30.0)
  end
  begin
     id 17 
     name lclavicle
     direction 0.929368 0.362991 -0.0671771  
     length 3.04887  
     axis 0 0 0   XYZ
    dof ry rz
    limits (-20.0 10.0)
           (0.0 20.0)
  end
  begin
     id 18 
     name lhumerus
     direction 1 -4.48967e-011 -7.13741e-028   
     length 4.77195   
     axis -180 -30 -90   XYZ
    dof rx ry rz
    limits (-60.0 90.0)
           (-90.0 90.0)
           (-90.0 90.0)
  end
  begin
     id 19
     name lradius
     direction 1 -4.48977e-011 3.60404e-027   
     length 2.98444   
     axis -180 -30 -90   XYZ
    dof rx
    limits (-10.0 170.0)
  end
  begin
     id 20
     name lwrist
     direction 1 -4.48997e-011 7.54877e-027   
     length 1.49222   
     axis -7.18178e-015 90 90   XYZ
    dof ry
    limits (-180.0 0.0)
 end
  begin
     id 21 
     name lhand
     direction 1 -4.489e-011 1.51105e-026   
     length 0.992285   
     axis -9.63605e-015 90 90   XYZ
    dof rx rz
    limits (-90.0 90.0)
           (-45.0 45.0)
  end
  begin
     id 22 
     name lfingers
     direction 1 -4.48998e-011 3.01948e-026   
     length 0.800006   
     axis -1.92718e-014 90 90   XYZ
    dof rx
    limits (0.0 90.0)
  end
  begin
     id 23
     name lthumb
     direction 0.707107 -6.34881e-011 0.707107   
     length 1.14865   
     axis -90 45 -3.53137e-014   XYZ
    dof rx rz
    limits (-45.0 45.0)
           (-45.0 45.0)
  end
  begin
     id 24 
     name rclavicle
     direction -0.945672 0.324529 0.0196374   
     length 3.4236  
     axis 0 0 0   XYZ 
    dof ry rz
    limits (-10.0 20.0)
           (-20.0 0.0)
  end
  begin
     id 25 
     name rhumerus
     direction -1 -4.4896e-011 1.02757e-029  
     length 4.62052   
     axis -180 30 90   XYZ
    dof rx ry rz
    limits (-90.0 60.0)
           (-90.0 90.0)
           (-90.0 90.0)
  end
  begin
     id 26 
     name rradius
     direction -1 -4.48982e-011 3.85962e-027   
     length 2.95332   
     axis -180 30 90   XYZ
    dof rx
    limits (-10.0 170.0)
  end
  begin
     id 27 
     name rwrist
     direction -1 -4.48961e-011 7.55118e-027   
     length 1.47666   
     axis -7.18178e-015 -90 -90   XYZ
    dof ry
    limits (-180.0 0.0)
  end
  begin
     id 28
     name rhand
     direction -1 -4.48984e-011 1.50994e-026   
     length 0.990956   
     axis -9.63605e-015 -90 -90   XYZ
    dof rx rz
    limits (-90.0 90.0)
           (-45.0 45.0)
  end
  begin
     id 29
     name rfingers
     direction -1 -4.4892e-011 3.02158e-026   
     length 0.798934   
     axis -1.92718e-014 -90 -90   XYZ
    dof rx
    limits (0.0 90.0)
  end
  begin
     id 30
     name rthumb
     direction -0.707107 -6.34916e-011 0.707107   
     length 1.14711   
     axis -90 -45 3.53137e-014   XYZ
    dof rx rz
    limits (-45.0 45.0)
           (-45.0 45.0)
  end
:hierarchy
  begin
    root lhipjoint rhipjoint lowerback
    lhipjoint lfemur
    lfemur ltibia
    ltibia lfoot
    lfoot ltoes
    rhipjoint rfemur
    rfemur rtibia
    rtibia rfoot
    rfoot rtoes
    lowerback upperback
    upperback thorax
    thorax lowerneck lclavicle rclavicle
    lowerneck upperneck
    upperneck head
    lclavicle lhumerus
    lhumerus lradius
    lradius lwrist
    lwrist lhand lthumb
    lhand lfingers
    rclavicle rhumerus
    rhumerus rradius
    rradius rwrist
    rwrist rhand rthumb
    rhand rfingers
  end

#!OML:ASF H:\ManfredObstacles\Project 1\Capture day 1\Session 1\Male.ASF
:FULLY-SPECIFIED
:DEGREES
141
root -9.72042 16.23 37.7083 -170.896 -5.03672 -178.515
lowerback -7.7641 -2.41623 -0.97149
upperback 1.50664 -3.20789 1.22429
thorax 6.05461 -1.64082 1.40704
lowerneck -0.208084 -1.91503 -5.2188
upperneck -8.06634 -1.77888 8.20925
head -2.44133 -0.796934 3.67741
rclavicle -5.77718e-015 4.67144e-015
rhumerus -40.4057 -28.6928 -69.6983
rradius 22.4354
rwrist 38.3248
rhand -0.214025 -6.25491
rfingers 7.12502
rthumb 25.3854 -34.585
lclavicle -5.77718e-015 4.67144e-015
lhumerus -26.8185 10.0855 84.922
lradius 22.0048
lwrist -26.0249
lhand -6.44255 11.7673
lfingers 7.12502
lthumb 19.4069 40.8188
rfemur -20.9778 -0.145415 24.1764
rtibia 28.6527
rfoot -19.5162 12.0532
rtoes 17.6611
lfemur -23.3105 -3.85627 -16.0827
ltibia 60.5101
lfoot 3.87949 4.43134
ltoes 17.2875
142
root -9.67968 16.2408 37.5883 -171.102 -4.74708 -178.471
lowerback -7.49832 -2.30727 -1.04624
upperback 1.57824 -3.05742 1.23117
thorax 5.97764 -1.57012 1.48494
lowerneck -0.0350904 -1.8374 -5.3031
upperneck -8.0482 -1.68281 8.29862
head -2.47453 -0.754481 3.72742
rclavicle -1.65737e-014 -3.47873e-015
rhumerus -40.0036 -28.6505 -69.754
rradius 22.2692
rwrist 38.7891
rhand -0.327285 -6.17098
rfingers 7.12502
rthumb 25.2769 -34.5164
lclavicle -1.65737e-014 -3.47873e-015
lhumerus -26.9263 9.98058 84.9541
lradius 22.2003
lwrist -25.623
lhand -6.63405 11.6184
lfingers 7.12502
lthumb 19.2227 40.6884
rfemur -19.9378 -0.553722 24.4699
rtibia 27.9169
rfoot -19.3064 12.5872
rtoes 17.7299
lfemur -25.5198 -3.25149 -16.1259
ltibia 62.7049
lfoot 2.95025 4.42601
ltoes 14.9212
143
root -9.64104 16.2431 37.4665 -171.308 -4.50074 -178.513
lowerback -7.28928 -2.22886 -1.27905
upperback 1.69002 -2.9349 1.26296
thorax 5.98565 -1.5199 1.6699
lowerneck 0.110241 -1.7546 -5.45032
upperneck -8.07174 -1.5734 8.41183
head -2.51785 -0.702408 3.79838
rclavicle 3.23025e-015 -1.66482e-014
rhumerus -39.5068 -28.7553 -69.7333
rradius 22.0548
rwrist 39.3095
rhand -0.526712 -6.24953
rfingers 7.12502
rthumb 25.0858 -34.6218
lclavicle 3.23025e-015 -1.66482e-014
lhumerus -26.9881 10.2896 84.9346
lradius 22.2529
lwrist -25.6813
lhand -6.85638 11.5022
lfingers 7.12502
lthumb 19.0089 40.5933
rfemur -18.9841 -0.931738 24.6461
rtibia 27.3838
rfoot -19.139 13.0147
rtoes 17.4288
lfemur -27.541 -2.81201 -16.2951
ltibia 64.2119
lfoot 2.11401 4.49637
ltoes 15.3625
144
root -9.60934 16.2425 37.3422 -171.511 -4.26323 -178.702
lowerback -7.1137 -2.13038 -1.51412
upperback 1.83978 -2.77735 1.16826
thorax 6.04339 -1.4501 1.72635
lowerneck 0.109476 -1.7372 -5.31713
upperneck -7.97209 -1.56409 8.32196
head -2.48523 -0.701604 3.73815
rclavicle -6.07536e-015 3.8266e-015
rhumerus -38.9885 -29.0953 -69.7628
rradius 21.8596
rwrist 39.8953
rhand -0.680263 -6.3579
rfingers 7.12502
rthumb 24.9386 -34.7507
lclavicle -6.07536e-015 3.8266e-015
lhumerus -26.9895 10.4836 84.8197
lradius 22.2284
lwrist -25.7872
lhand -7.13026 11.3243
lfingers 7.12502
lthumb 18.7455 40.4411
rfemur -18.1236 -1.35425 24.6112
rtibia 27.084
rfoot -19.2526 13.6216
rtoes 17.5737
lfemur -29.3862 -2.53085 -16.6425
ltibia 65.0291
lfoot 1.4031 4.45196
ltoes 12.9234
145
root -9.58632 16.2428 37.217 -171.474 -3.95754 -179.006
lowerback -7.11157 -2.02312 -1.74396
upperback 1.87925 -2.60035 0.995946
thorax 6.07813 -1.36733 1.69724
lowerneck 0.048043 -1.74928 -5.13649
upperneck -7.7407 -1.60594 8.20712
head -2.39349 -0.727533 3.65666
rclavicle 3.62658e-014 3.18055e-015
rhumerus -38.5755 -29.4114 -69.8222
rradius 21.7303
rwrist 40.3724
rhand -0.715352 -6.28087
rfingers 7.12502
rthumb 24.905 -34.6783
lclavicle 3.62658e-014 3.18055e-015
lhumerus -27.134 10.3974 84.6652
lradius 22.3103
lwrist -25.6608
lhand -7.10146 11.2949
lfingers 7.12502
lthumb 18.7732 40.409
rfemur -17.5933 -1.77409 24.3943
rtibia 26.9331
rfoot -19.4866 14.3618
rtoes 18.3018
lfemur -31.3422 -2.381 -17.1075
ltibia 65.2028
lfoot 0.655299 4.30365
ltoes 13.9104
